<mxfile host="app.diagrams.net" modified="2023-10-30T06:39:08.532Z" agent="Mozilla/5.0 (Windows NT 10.0; Win64; x64) AppleWebKit/537.36 (KHTML, like Gecko) Chrome/118.0.0.0 Safari/537.36 Edg/118.0.2088.69" etag="BozPRuMbHaDI-MiByHPf" version="22.0.8" type="github">
  <diagram id="R2lEEEUBdFMjLlhIrx00" name="Page-1">
    <mxGraphModel dx="923" dy="542" grid="1" gridSize="10" guides="1" tooltips="1" connect="1" arrows="1" fold="1" page="1" pageScale="1" pageWidth="850" pageHeight="1100" math="0" shadow="0" extFonts="Permanent Marker^https://fonts.googleapis.com/css?family=Permanent+Marker">
      <root>
        <mxCell id="0" />
        <mxCell id="1" parent="0" />
        <mxCell id="89PI0D2CsyXBcDLsJdT1-1" value="Vendedor" style="rounded=0;whiteSpace=wrap;html=1;" vertex="1" parent="1">
          <mxGeometry x="30" y="60" width="90" height="30" as="geometry" />
        </mxCell>
        <mxCell id="89PI0D2CsyXBcDLsJdT1-2" value="Sucursal" style="rounded=0;whiteSpace=wrap;html=1;" vertex="1" parent="1">
          <mxGeometry x="200" y="60" width="90" height="30" as="geometry" />
        </mxCell>
        <mxCell id="89PI0D2CsyXBcDLsJdT1-4" value="Cliente" style="rounded=0;whiteSpace=wrap;html=1;" vertex="1" parent="1">
          <mxGeometry x="500" y="60" width="90" height="30" as="geometry" />
        </mxCell>
        <mxCell id="89PI0D2CsyXBcDLsJdT1-7" value="" style="edgeStyle=entityRelationEdgeStyle;fontSize=12;html=1;endArrow=ERzeroToMany;startArrow=ERmandOne;rounded=0;endFill=0;entryX=0;entryY=0.5;entryDx=0;entryDy=0;" edge="1" parent="1" target="89PI0D2CsyXBcDLsJdT1-2">
          <mxGeometry width="100" height="100" relative="1" as="geometry">
            <mxPoint x="120" y="74.67" as="sourcePoint" />
            <mxPoint x="180" y="75" as="targetPoint" />
          </mxGeometry>
        </mxCell>
        <mxCell id="89PI0D2CsyXBcDLsJdT1-9" value="" style="edgeStyle=entityRelationEdgeStyle;fontSize=12;html=1;endArrow=ERzeroToMany;startArrow=ERzeroToMany;rounded=0;endFill=0;startFill=0;" edge="1" parent="1">
          <mxGeometry width="100" height="100" relative="1" as="geometry">
            <mxPoint x="440" y="74.67" as="sourcePoint" />
            <mxPoint x="500" y="75" as="targetPoint" />
          </mxGeometry>
        </mxCell>
        <mxCell id="89PI0D2CsyXBcDLsJdT1-11" value="" style="fontSize=12;html=1;endArrow=ERzeroToMany;endFill=0;rounded=0;startArrow=ERmandOne;startFill=0;exitX=0;exitY=0.5;exitDx=0;exitDy=0;" edge="1" parent="1" source="89PI0D2CsyXBcDLsJdT1-12">
          <mxGeometry width="100" height="100" relative="1" as="geometry">
            <mxPoint x="695" y="40" as="sourcePoint" />
            <mxPoint x="590" y="75" as="targetPoint" />
          </mxGeometry>
        </mxCell>
        <mxCell id="89PI0D2CsyXBcDLsJdT1-12" value="Proforma" style="shape=ext;double=1;rounded=0;whiteSpace=wrap;html=1;" vertex="1" parent="1">
          <mxGeometry x="670" y="60" width="90" height="30" as="geometry" />
        </mxCell>
        <mxCell id="89PI0D2CsyXBcDLsJdT1-15" value="Descuento" style="rounded=0;whiteSpace=wrap;html=1;" vertex="1" parent="1">
          <mxGeometry x="750" y="130" width="90" height="30" as="geometry" />
        </mxCell>
        <mxCell id="89PI0D2CsyXBcDLsJdT1-17" value="" style="edgeStyle=orthogonalEdgeStyle;fontSize=12;html=1;endArrow=ERzeroToMany;endFill=1;rounded=0;startArrow=ERzeroToMany;startFill=0;entryX=0;entryY=0.5;entryDx=0;entryDy=0;" edge="1" parent="1" target="89PI0D2CsyXBcDLsJdT1-15">
          <mxGeometry width="100" height="100" relative="1" as="geometry">
            <mxPoint x="710" y="210" as="sourcePoint" />
            <mxPoint x="738.98" y="170" as="targetPoint" />
            <Array as="points">
              <mxPoint x="710" y="145" />
            </Array>
          </mxGeometry>
        </mxCell>
        <mxCell id="89PI0D2CsyXBcDLsJdT1-18" value="Venta" style="rounded=0;whiteSpace=wrap;html=1;" vertex="1" parent="1">
          <mxGeometry x="670" y="210" width="90" height="30" as="geometry" />
        </mxCell>
        <mxCell id="89PI0D2CsyXBcDLsJdT1-19" value="DetalleVenta" style="rounded=0;whiteSpace=wrap;html=1;" vertex="1" parent="1">
          <mxGeometry x="670" y="270" width="90" height="30" as="geometry" />
        </mxCell>
        <mxCell id="89PI0D2CsyXBcDLsJdT1-20" value="" style="fontSize=12;html=1;endArrow=ERmandOne;startArrow=ERoneToMany;rounded=0;startFill=0;" edge="1" parent="1">
          <mxGeometry width="100" height="100" relative="1" as="geometry">
            <mxPoint x="710" y="270" as="sourcePoint" />
            <mxPoint x="710" y="240" as="targetPoint" />
          </mxGeometry>
        </mxCell>
        <mxCell id="89PI0D2CsyXBcDLsJdT1-21" value="" style="edgeStyle=orthogonalEdgeStyle;fontSize=12;html=1;endArrow=ERmandOne;endFill=0;rounded=0;exitX=0;exitY=0.5;exitDx=0;exitDy=0;startArrow=ERzeroToMany;startFill=0;" edge="1" parent="1" source="89PI0D2CsyXBcDLsJdT1-18">
          <mxGeometry width="100" height="100" relative="1" as="geometry">
            <mxPoint x="454" y="189.45" as="sourcePoint" />
            <mxPoint x="544" y="89.45" as="targetPoint" />
          </mxGeometry>
        </mxCell>
        <mxCell id="89PI0D2CsyXBcDLsJdT1-22" value="" style="edgeStyle=orthogonalEdgeStyle;fontSize=12;html=1;endArrow=ERzeroToMany;endFill=1;rounded=0;startArrow=ERzeroToMany;startFill=0;" edge="1" parent="1">
          <mxGeometry width="100" height="100" relative="1" as="geometry">
            <mxPoint x="760" y="70" as="sourcePoint" />
            <mxPoint x="800" y="130" as="targetPoint" />
          </mxGeometry>
        </mxCell>
        <mxCell id="89PI0D2CsyXBcDLsJdT1-23" value="VendedorSucursal" style="rounded=0;whiteSpace=wrap;html=1;" vertex="1" parent="1">
          <mxGeometry x="90" y="130" width="110" height="30" as="geometry" />
        </mxCell>
        <mxCell id="89PI0D2CsyXBcDLsJdT1-24" value="" style="edgeStyle=orthogonalEdgeStyle;fontSize=12;html=1;endArrow=none;endFill=0;rounded=0;startArrow=ERmany;startFill=0;" edge="1" parent="1">
          <mxGeometry width="100" height="100" relative="1" as="geometry">
            <mxPoint x="200" y="145" as="sourcePoint" />
            <mxPoint x="230" y="90" as="targetPoint" />
          </mxGeometry>
        </mxCell>
        <mxCell id="89PI0D2CsyXBcDLsJdT1-25" value="" style="edgeStyle=orthogonalEdgeStyle;fontSize=12;html=1;endArrow=none;endFill=0;rounded=0;exitX=0;exitY=0.5;exitDx=0;exitDy=0;startArrow=ERoneToMany;startFill=0;" edge="1" parent="1" source="89PI0D2CsyXBcDLsJdT1-23">
          <mxGeometry width="100" height="100" relative="1" as="geometry">
            <mxPoint x="80" y="190" as="sourcePoint" />
            <mxPoint x="70" y="90" as="targetPoint" />
          </mxGeometry>
        </mxCell>
        <mxCell id="89PI0D2CsyXBcDLsJdT1-26" value="" style="edgeStyle=orthogonalEdgeStyle;fontSize=12;html=1;endArrow=ERzeroToOne;endFill=0;rounded=0;startArrow=ERzeroToMany;startFill=0;exitX=0;exitY=0.25;exitDx=0;exitDy=0;" edge="1" parent="1" source="89PI0D2CsyXBcDLsJdT1-27">
          <mxGeometry width="100" height="100" relative="1" as="geometry">
            <mxPoint x="190" y="250" as="sourcePoint" />
            <mxPoint x="245" y="90" as="targetPoint" />
            <Array as="points">
              <mxPoint x="170" y="253" />
              <mxPoint x="170" y="180" />
              <mxPoint x="245" y="180" />
            </Array>
          </mxGeometry>
        </mxCell>
        <mxCell id="89PI0D2CsyXBcDLsJdT1-27" value="AbastecimientoProducto" style="rounded=0;whiteSpace=wrap;html=1;" vertex="1" parent="1">
          <mxGeometry x="200" y="240" width="150" height="50" as="geometry" />
        </mxCell>
        <mxCell id="89PI0D2CsyXBcDLsJdT1-29" value="Proveedor" style="rounded=0;whiteSpace=wrap;html=1;" vertex="1" parent="1">
          <mxGeometry x="10" y="250" width="110" height="30" as="geometry" />
        </mxCell>
        <mxCell id="89PI0D2CsyXBcDLsJdT1-30" value="" style="fontSize=12;html=1;endArrow=ERzeroToMany;endFill=1;rounded=0;startArrow=ERmandOne;startFill=0;" edge="1" parent="1">
          <mxGeometry width="100" height="100" relative="1" as="geometry">
            <mxPoint x="120" y="264.67" as="sourcePoint" />
            <mxPoint x="200" y="265" as="targetPoint" />
          </mxGeometry>
        </mxCell>
        <mxCell id="89PI0D2CsyXBcDLsJdT1-31" value="Producto" style="rounded=0;whiteSpace=wrap;html=1;" vertex="1" parent="1">
          <mxGeometry x="10" y="320" width="110" height="30" as="geometry" />
        </mxCell>
        <mxCell id="89PI0D2CsyXBcDLsJdT1-32" value="" style="edgeStyle=orthogonalEdgeStyle;fontSize=12;html=1;endArrow=ERzeroToMany;endFill=1;rounded=0;entryX=0;entryY=0.75;entryDx=0;entryDy=0;startArrow=ERmandOne;startFill=0;" edge="1" parent="1" target="89PI0D2CsyXBcDLsJdT1-27">
          <mxGeometry width="100" height="100" relative="1" as="geometry">
            <mxPoint x="120" y="340" as="sourcePoint" />
            <mxPoint x="180" y="280" as="targetPoint" />
          </mxGeometry>
        </mxCell>
        <mxCell id="89PI0D2CsyXBcDLsJdT1-33" value="" style="edgeStyle=orthogonalEdgeStyle;fontSize=12;html=1;endArrow=ERoneToMany;endFill=0;rounded=0;startArrow=ERmandOne;startFill=0;entryX=0.772;entryY=1.135;entryDx=0;entryDy=0;entryPerimeter=0;" edge="1" parent="1" target="89PI0D2CsyXBcDLsJdT1-2">
          <mxGeometry width="100" height="100" relative="1" as="geometry">
            <mxPoint x="450" y="180" as="sourcePoint" />
            <mxPoint x="270" y="120" as="targetPoint" />
            <Array as="points">
              <mxPoint x="450" y="150" />
              <mxPoint x="269" y="150" />
            </Array>
          </mxGeometry>
        </mxCell>
        <mxCell id="89PI0D2CsyXBcDLsJdT1-35" value="Empleado" style="rounded=0;whiteSpace=wrap;html=1;" vertex="1" parent="1">
          <mxGeometry x="375" y="180" width="125" height="50" as="geometry" />
        </mxCell>
        <mxCell id="89PI0D2CsyXBcDLsJdT1-36" value="" style="fontSize=12;html=1;endArrow=ERmandOne;endFill=0;rounded=0;entryX=0.25;entryY=1;entryDx=0;entryDy=0;edgeStyle=orthogonalEdgeStyle;startArrow=ERmandOne;startFill=0;" edge="1" parent="1" target="89PI0D2CsyXBcDLsJdT1-35">
          <mxGeometry width="100" height="100" relative="1" as="geometry">
            <mxPoint x="370" y="330" as="sourcePoint" />
            <mxPoint x="600" y="180" as="targetPoint" />
            <Array as="points">
              <mxPoint x="370" y="280" />
              <mxPoint x="406" y="280" />
            </Array>
          </mxGeometry>
        </mxCell>
        <mxCell id="89PI0D2CsyXBcDLsJdT1-37" value="Seguro" style="rounded=0;whiteSpace=wrap;html=1;" vertex="1" parent="1">
          <mxGeometry x="330" y="330" width="90" height="30" as="geometry" />
        </mxCell>
        <mxCell id="89PI0D2CsyXBcDLsJdT1-38" value="Horario" style="rounded=0;whiteSpace=wrap;html=1;" vertex="1" parent="1">
          <mxGeometry x="450" y="330" width="90" height="30" as="geometry" />
        </mxCell>
        <mxCell id="89PI0D2CsyXBcDLsJdT1-39" value="" style="edgeStyle=orthogonalEdgeStyle;fontSize=12;html=1;endArrow=ERoneToMany;endFill=0;rounded=0;startArrow=ERzeroToMany;startFill=0;" edge="1" parent="1" source="89PI0D2CsyXBcDLsJdT1-38">
          <mxGeometry width="100" height="100" relative="1" as="geometry">
            <mxPoint x="507.06" y="326.37" as="sourcePoint" />
            <mxPoint x="460" y="230" as="targetPoint" />
            <Array as="points">
              <mxPoint x="505" y="280" />
              <mxPoint x="460" y="280" />
            </Array>
          </mxGeometry>
        </mxCell>
      </root>
    </mxGraphModel>
  </diagram>
</mxfile>
